<svg width="512" height="512" viewBox="0 0 512 512" fill="none" 
    xmlns="http://www.w3.org/2000/svg">
    <path fill-rule="evenodd" clip-rule="evenodd" d="M372.364 163.34H442.182L512 255.68V371.106H465.455C465.455 409.427 434.269 440.361 395.636 440.361C357.004 440.361 325.818 409.427 325.818 371.106H186.182C186.182 409.427 154.996 440.361 116.364 440.361C77.7309 440.361 46.5455 409.427 46.5455 371.106H0V117.17C0 91.7765 20.9455 71 46.5455 71H372.364V163.34ZM81.4546 371.106C81.4546 390.266 97.0473 405.733 116.364 405.733C135.68 405.733 151.273 390.266 151.273 371.106C151.273 351.945 135.68 336.478 116.364 336.478C97.0473 336.478 81.4546 351.945 81.4546 371.106ZM476.16 255.68L430.545 197.968H372.364V255.68H476.16ZM360.727 371.106C360.727 390.266 376.32 405.733 395.636 405.733C414.953 405.733 430.545 390.266 430.545 371.106C430.545 351.945 414.953 336.478 395.636 336.478C376.32 336.478 360.727 351.945 360.727 371.106ZM117.267 151.585L189.338 119.644L261.408 151.585V199.495C261.408 243.812 230.658 285.255 189.338 295.316C148.017 285.255 117.267 243.812 117.267 199.495V151.585Z" fill="#1A4176"/>
    <path d="M146.028 214.781L179.681 248.464L246.986 181.098L235.123 169.14L179.681 224.633L157.891 202.907L146.028 214.781Z" fill="#1A4176"/>
</svg>
